<svg width="23" height="18" viewBox="0 0 23 18" fill="none" xmlns="http://www.w3.org/2000/svg">
<path d="M8.27625 18C8.05578 18 7.83531 17.909 7.67783 17.734L0.213418 9.54523C-0.0700407 9.23377 -0.0700407 8.76134 0.213418 8.45339L7.67783 0.264573C7.97879 -0.0678784 8.49322 -0.0888754 8.82567 0.212081C9.15812 0.513037 9.17912 1.02746 8.87816 1.35991L1.91067 8.99931L8.87816 16.6422C9.17912 16.9746 9.15462 17.4856 8.82567 17.79C8.66819 17.93 8.47222 18 8.27625 18Z" fill="black"/>
<path d="M21.5849 9.8112H0.811882C0.363947 9.8112 0 9.44726 0 8.99932C0 8.55139 0.363947 8.18744 0.811882 8.18744H21.5849C22.0328 8.18744 22.3967 8.55139 22.3967 8.99932C22.3967 9.44726 22.0328 9.8112 21.5849 9.8112Z" fill="black"/>
</svg>
