<svg width="15" height="15" viewBox="0 0 15 15" fill="none" xmlns="http://www.w3.org/2000/svg">
<path d="M7.96319 0.307715H7.95912H7.95708C7.54681 0.309823 7.19294 0.55721 7.02515 0.914945L5.29716 4.45361L1.87038 4.98423C1.35756 5.0517 0.961548 5.50501 0.961548 6.05391C0.961548 6.34979 1.0777 6.61827 1.26449 6.81436L3.75663 9.4358L3.13852 13.0335C3.12765 13.0967 3.12154 13.1614 3.12154 13.2282C3.12154 13.8241 3.58818 14.307 4.16418 14.307V14.3077C4.33942 14.307 4.50379 14.262 4.64848 14.184L7.96119 12.4438L11.2746 14.1847C11.4193 14.262 11.5843 14.307 11.7589 14.307C12.3349 14.307 12.8015 13.8234 12.8015 13.2282C12.8015 13.1614 12.7954 13.0967 12.7846 13.0335L12.1664 9.4358L14.6593 6.81364C14.8461 6.61827 14.9615 6.34979 14.9615 6.0539C14.9615 5.50499 14.5656 5.05169 14.0534 4.98351L10.6266 4.4536L8.90133 0.914207C8.7322 0.555068 8.37549 0.307715 7.96319 0.307715Z" fill="black"/>
</svg>
