<svg width="18" height="18" viewBox="0 0 18 18" fill="none" xmlns="http://www.w3.org/2000/svg">
<path d="M9.00211 4.72104e-05H8.99687H8.99426C8.46677 0.00275789 8.01179 0.320827 7.79606 0.780772L5.57436 5.33049L1.1685 6.01272C0.509154 6.09946 0 6.68229 0 7.38802C0 7.76843 0.149337 8.11362 0.3895 8.36574L3.59368 11.7362L2.79896 16.3617C2.78499 16.4431 2.77713 16.5262 2.77713 16.612C2.77713 17.3783 3.37709 17.9991 4.11766 17.9991V18C4.34298 17.9991 4.55431 17.9413 4.74035 17.841L8.99954 15.6036L13.2596 17.8419C13.4456 17.9413 13.6578 17.9991 13.8823 17.9991C14.6229 17.9991 15.2228 17.3774 15.2228 16.612C15.2228 16.5262 15.215 16.4431 15.201 16.3617L14.4063 11.7362L17.6114 8.36481C17.8515 8.11362 18 7.76843 18 7.38799C18 6.68226 17.4909 6.09944 16.8324 6.01179L12.4265 5.33047L10.2083 0.779823C9.99084 0.318073 9.53222 4.72104e-05 9.00211 4.72104e-05Z" fill="white"/>
</svg>
